<?xml version="1.0" standalone="no"?>
<!DOCTYPE svg PUBLIC "-//W3C//DTD SVG 20010904//EN"
 "http://www.w3.org/TR/2001/REC-SVG-20010904/DTD/svg10.dtd">
<svg version="1.0" xmlns="http://www.w3.org/2000/svg"
 width="1319.000000pt" height="1594.000000pt" viewBox="0 0 1319.000000 1594.000000"
 preserveAspectRatio="xMidYMid meet">

<g transform="translate(0.000000,1594.000000) scale(0.100000,-0.100000)"
fill="#000000" stroke="none">
<path d="M7713 14961 c-78 -57 -78 -58 -78 -297 0 -239 0 -240 81 -296 34 -24
49 -27 117 -28 135 0 505 -45 727 -87 74 -14 159 -29 189 -34 54 -8 199 -42
341 -80 41 -11 107 -29 145 -39 129 -34 521 -170 619 -215 30 -14 59 -25 65
-25 24 0 456 -207 596 -285 33 -19 85 -48 115 -65 56 -31 196 -114 216 -128
38 -25 162 -108 176 -117 56 -34 168 -113 199 -139 19 -17 81 -64 137 -105 56
-40 102 -77 102 -82 0 -5 8 -13 17 -16 10 -4 74 -56 143 -116 69 -60 139 -115
157 -123 41 -18 115 -18 156 0 41 18 259 239 286 291 49 93 16 163 -137 292
-160 136 -165 140 -187 161 -11 10 -69 56 -130 102 -60 45 -112 85 -115 89 -6
7 -42 32 -146 102 -43 30 -81 56 -84 59 -7 8 -193 130 -253 166 -258 156 -318
189 -552 306 -318 158 -383 187 -670 295 -180 68 -225 84 -330 116 -60 19
-144 44 -185 57 -77 23 -269 74 -350 92 -304 67 -473 99 -625 119 -225 29
-447 51 -565 56 l-135 5 -42 -31z"/>
<path d="M4165 14174 c-38 -19 -83 -42 -100 -52 -16 -9 -75 -43 -130 -75 -55
-31 -107 -62 -115 -67 -8 -5 -35 -22 -60 -37 -68 -41 -304 -196 -310 -203 -3
-4 -43 -33 -90 -65 -47 -32 -88 -63 -91 -68 -3 -5 -18 -16 -32 -25 -48 -32
-217 -164 -255 -200 -22 -21 -63 -57 -93 -82 -262 -221 -540 -499 -749 -750
-25 -29 -56 -65 -70 -79 -14 -14 -64 -75 -110 -136 -46 -60 -88 -111 -92 -113
-5 -2 -8 -9 -8 -16 0 -7 -10 -21 -21 -32 -12 -10 -44 -53 -72 -94 -27 -41 -55
-79 -61 -85 -7 -5 -34 -45 -61 -88 -26 -43 -54 -84 -60 -91 -7 -6 -34 -49 -60
-94 -26 -45 -54 -87 -61 -93 -8 -6 -14 -15 -14 -19 0 -5 -27 -53 -59 -108 -33
-56 -62 -110 -66 -121 -3 -12 -12 -27 -19 -33 -7 -7 -26 -40 -42 -73 -17 -33
-49 -98 -73 -145 -58 -115 -115 -237 -181 -384 -40 -91 -41 -148 -1 -203 35
-48 72 -76 126 -93 22 -7 65 -23 96 -35 31 -13 90 -33 131 -44 72 -20 78 -21
124 -5 66 22 86 43 123 127 57 129 209 439 266 542 52 94 100 177 110 194 6 9
29 48 53 86 68 112 237 364 286 427 44 55 59 75 119 156 33 45 65 82 69 82 4
0 8 5 8 11 0 6 18 29 39 52 22 23 88 98 147 167 129 150 389 411 534 535 58
49 125 109 150 132 25 24 51 43 58 43 6 0 12 4 12 9 0 4 42 39 93 77 50 37 97
72 102 76 106 84 198 149 313 221 41 26 83 53 91 60 17 15 140 87 147 87 2 0
23 14 46 30 22 17 45 30 50 30 5 0 28 13 51 28 23 16 51 32 61 36 45 16 105
64 130 102 44 69 37 109 -45 287 -84 180 -97 199 -146 222 -65 31 -110 29
-188 -11z"/>
<path d="M7735 13817 c-49 -19 -93 -73 -101 -122 -3 -24 -4 -124 -2 -222 l3
-180 30 -36 c48 -57 80 -64 451 -97 173 -15 548 -91 745 -151 53 -16 104 -29
112 -29 8 0 51 -13 94 -28 43 -16 101 -36 128 -46 117 -41 185 -67 260 -99 44
-19 100 -43 125 -53 80 -34 443 -219 513 -262 37 -23 69 -42 72 -42 2 0 44
-26 92 -58 206 -135 317 -214 326 -228 4 -8 12 -14 17 -14 10 0 184 -138 288
-228 68 -60 120 -77 196 -66 36 6 57 22 182 148 137 137 142 143 147 191 10
82 -8 134 -69 190 -6 5 -89 73 -185 150 -176 142 -282 221 -413 307 -39 26
-82 55 -96 65 -34 25 -130 83 -136 83 -3 0 -20 11 -37 24 -18 13 -50 33 -72
45 -22 12 -67 37 -100 56 -56 32 -385 196 -430 215 -11 4 -51 22 -89 39 -37
17 -72 31 -77 31 -4 0 -36 13 -71 28 -67 31 -90 39 -288 107 -194 66 -541 165
-577 165 -10 0 -79 13 -153 29 -167 37 -448 77 -640 91 -174 12 -206 12 -245
-3z"/>
<path d="M4650 13128 c-30 -16 -72 -40 -92 -53 -21 -14 -41 -25 -46 -25 -5 0
-28 -13 -50 -30 -23 -16 -44 -30 -46 -30 -7 0 -141 -82 -146 -90 -3 -4 -36
-27 -75 -50 -38 -24 -84 -55 -101 -69 -18 -14 -76 -57 -130 -96 -55 -38 -105
-77 -112 -87 -7 -10 -18 -18 -23 -18 -6 0 -23 -11 -37 -24 -15 -14 -61 -52
-102 -86 -124 -102 -204 -177 -374 -347 -201 -202 -223 -225 -325 -348 -45
-55 -93 -113 -107 -129 -13 -15 -24 -32 -24 -36 0 -5 -8 -15 -18 -22 -10 -7
-50 -58 -89 -113 -40 -55 -84 -116 -98 -135 -22 -29 -79 -114 -140 -209 -5 -9
-22 -35 -37 -58 -16 -23 -28 -44 -28 -47 0 -3 -13 -25 -30 -49 -16 -25 -30
-48 -30 -51 0 -4 -11 -23 -25 -44 -32 -49 -121 -221 -230 -447 -71 -146 -80
-211 -42 -285 25 -51 74 -81 192 -120 39 -12 90 -32 115 -43 31 -14 66 -21
111 -21 90 0 129 25 171 114 17 36 54 115 83 176 46 96 87 172 220 409 16 28
34 57 42 66 7 8 34 50 60 91 119 190 296 424 459 608 69 79 422 429 493 490
131 112 267 219 371 292 52 37 100 71 105 75 6 5 48 33 95 63 47 30 99 64 116
77 17 13 34 23 38 23 4 0 26 13 49 28 23 16 71 43 107 62 37 19 79 50 98 73
29 35 32 46 32 105 0 48 -6 78 -24 116 -13 28 -47 99 -75 158 -45 97 -55 111
-97 138 -63 40 -126 39 -204 -2z"/>
<path d="M7725 12637 c-16 -8 -43 -29 -60 -46 l-30 -32 -3 -191 c-2 -105 -1
-206 2 -223 9 -48 65 -102 117 -114 24 -5 121 -19 214 -31 94 -11 231 -34 305
-50 74 -17 142 -30 150 -30 29 1 423 -123 495 -156 17 -7 48 -20 70 -27 97
-35 498 -230 535 -261 8 -7 38 -25 65 -41 28 -16 52 -31 55 -35 3 -3 32 -23
65 -44 97 -61 330 -235 399 -300 33 -29 107 -42 162 -27 30 8 67 39 165 138
69 71 134 139 143 153 24 36 21 117 -7 162 -12 20 -61 68 -108 106 -47 38 -95
77 -106 88 -11 10 -55 44 -98 74 -43 30 -97 69 -119 85 -63 47 -184 123 -346
218 -111 64 -436 227 -454 227 -3 0 -29 11 -58 24 -81 38 -347 131 -523 184
-358 107 -940 191 -1030 149z"/>
<path d="M5210 12087 c-19 -7 -55 -25 -80 -40 -25 -14 -63 -36 -85 -48 -22
-12 -49 -29 -60 -38 -11 -9 -49 -34 -85 -56 -36 -21 -79 -50 -96 -64 -18 -14
-73 -55 -124 -91 -51 -36 -104 -76 -120 -90 -15 -14 -47 -41 -71 -60 -218
-177 -447 -403 -624 -618 -127 -155 -221 -278 -234 -309 -5 -11 -15 -24 -21
-28 -9 -5 -56 -75 -105 -156 -5 -9 -17 -27 -26 -40 -9 -13 -29 -46 -45 -73
-120 -204 -253 -473 -260 -528 -5 -35 -1 -54 19 -94 14 -28 31 -55 39 -60 12
-10 66 -32 254 -103 104 -40 175 -42 224 -6 33 25 90 101 90 121 0 11 60 130
124 244 75 133 256 414 281 435 6 5 38 46 70 90 154 207 441 497 685 689 105
83 367 260 499 338 42 25 58 42 77 82 13 28 24 61 24 73 0 34 -39 128 -134
321 -23 48 -41 69 -71 87 -52 31 -101 38 -145 22z"/>
<path d="M7705 11451 c-71 -44 -85 -94 -85 -295 1 -148 11 -211 43 -244 35
-37 53 -44 197 -68 213 -36 313 -58 480 -108 73 -22 223 -76 234 -85 6 -4 27
-14 46 -21 19 -7 76 -33 125 -58 50 -25 108 -55 130 -66 22 -11 42 -23 45 -26
3 -4 28 -19 55 -34 28 -16 59 -36 71 -47 11 -10 23 -19 27 -19 12 0 207 -141
207 -150 0 -5 26 -17 57 -26 98 -29 125 -16 271 129 68 67 130 134 138 149 20
39 18 121 -5 158 -10 17 -43 51 -72 75 -30 24 -62 52 -73 61 -20 18 -273 187
-327 219 -87 51 -150 86 -224 123 -105 52 -212 102 -220 102 -3 0 -25 8 -48
19 -63 27 -78 33 -122 47 -22 7 -60 20 -85 29 -25 10 -67 23 -95 30 -27 7 -81
22 -120 33 -98 27 -313 69 -421 82 -136 15 -194 13 -229 -9z"/>
<path d="M7265 9719 c-38 -5 -86 -14 -105 -19 -19 -6 -48 -10 -64 -10 -15 0
-68 -13 -118 -30 -49 -16 -94 -30 -100 -30 -11 0 -161 -64 -193 -83 -11 -6
-38 -20 -60 -32 -50 -25 -213 -131 -240 -156 -79 -72 -285 -278 -285 -284 0
-5 -12 -21 -27 -37 -29 -30 -104 -149 -154 -243 -271 -514 -263 -1148 22
-1661 31 -55 64 -110 72 -120 9 -10 42 -55 75 -99 85 -115 140 -174 245 -258
121 -98 182 -141 241 -173 27 -14 56 -32 64 -40 7 -8 18 -14 23 -14 6 0 37
-13 71 -30 33 -16 65 -30 72 -30 6 0 22 -6 36 -13 85 -45 310 -96 465 -108
275 -20 521 11 736 92 42 16 80 29 85 29 24 1 286 143 304 165 7 8 18 15 25
15 8 0 15 3 17 8 2 4 30 27 62 51 137 102 304 285 401 439 76 121 164 308 185
394 5 18 18 65 29 103 66 220 71 611 9 845 -11 41 -25 98 -32 125 -7 28 -23
70 -34 95 -12 25 -27 61 -34 80 -29 77 -144 274 -203 347 -190 233 -376 389
-595 499 -85 43 -198 94 -209 94 -5 0 -51 13 -102 29 -52 16 -141 36 -199 46
-123 20 -384 28 -485 14z"/>
<path d="M4308 7545 c-64 -7 -134 -16 -156 -20 -119 -20 -166 -119 -127 -268
8 -32 15 -67 15 -78 0 -24 51 -201 87 -304 13 -38 29 -88 34 -110 6 -21 14
-44 18 -50 4 -5 14 -26 21 -45 34 -92 118 -272 185 -395 15 -27 37 -68 48 -90
12 -22 25 -42 28 -45 4 -3 23 -32 42 -66 20 -33 43 -67 52 -74 8 -7 15 -18 15
-25 0 -8 4 -15 8 -17 5 -1 22 -21 38 -43 52 -73 155 -193 170 -199 8 -3 14
-11 14 -17 0 -7 15 -27 33 -44 17 -17 64 -65 104 -107 96 -103 136 -114 230
-66 12 6 44 39 70 72 46 59 63 78 137 160 96 106 89 177 -29 301 -48 50 -137
157 -260 310 -26 32 -95 144 -95 153 0 3 -7 13 -15 22 -31 35 -109 190 -183
365 -62 147 -143 411 -157 510 -14 99 -81 171 -168 179 -23 3 -95 -1 -159 -9z"/>
<path d="M3250 7439 c-61 -10 -123 -27 -200 -55 -36 -13 -81 -27 -100 -30
-125 -25 -133 -52 -86 -269 8 -38 17 -88 21 -110 3 -22 17 -80 30 -130 14 -49
29 -109 35 -132 13 -54 53 -101 105 -124 67 -31 55 -33 343 78 75 29 99 44
124 75 44 57 46 99 10 236 -17 64 -41 166 -53 226 -25 127 -38 162 -72 194
-34 32 -102 50 -157 41z"/>
<path d="M809 7230 c-92 -10 -176 -21 -187 -24 -35 -11 -72 -46 -93 -89 -31
-60 -25 -118 47 -497 57 -304 178 -749 256 -947 15 -40 28 -81 28 -91 0 -10 3
-22 6 -25 8 -8 54 -119 54 -130 0 -4 9 -27 19 -50 10 -23 31 -73 46 -112 65
-166 233 -513 339 -700 13 -22 34 -60 47 -85 14 -25 37 -64 52 -87 15 -24 27
-45 27 -48 0 -3 15 -27 33 -54 17 -26 49 -75 69 -107 88 -138 145 -222 161
-238 9 -10 22 -27 29 -39 12 -23 95 -136 225 -303 73 -95 144 -180 203 -244
14 -15 81 -88 149 -163 124 -138 332 -344 394 -391 19 -14 54 -29 78 -32 70
-10 127 23 202 115 34 42 87 106 119 144 47 55 58 75 59 105 2 72 -3 107 -17
130 -8 12 -88 95 -178 185 -187 187 -411 438 -524 588 -44 57 -86 110 -95 118
-10 7 -17 19 -17 26 0 8 -4 15 -8 17 -13 5 -231 324 -307 450 -55 91 -86 145
-96 168 -6 13 -14 27 -18 30 -5 3 -20 28 -34 55 -227 452 -260 522 -309 652
-11 30 -26 67 -34 81 -8 15 -14 33 -14 40 0 13 -31 90 -50 124 -6 10 -10 24
-10 32 0 8 -13 50 -29 93 -44 120 -131 409 -147 488 -3 17 -18 84 -34 150 -37
161 -79 382 -89 477 -13 120 -62 180 -161 200 -14 3 -100 -3 -191 -12z"/>
<path d="M2235 7128 c-33 -11 -98 -31 -145 -45 -47 -15 -123 -38 -170 -53 -47
-15 -118 -38 -158 -51 -56 -17 -71 -26 -67 -38 3 -8 10 -48 15 -88 5 -39 21
-112 35 -162 14 -49 25 -101 25 -114 0 -14 7 -44 15 -68 9 -24 25 -82 37 -129
31 -127 53 -161 130 -201 50 -26 80 -24 157 10 75 32 161 68 206 84 71 27 121
78 135 142 8 35 6 46 -60 300 -25 97 -69 315 -75 373 -4 34 -10 62 -13 61 -4
0 -34 -10 -67 -21z"/>
<path d="M3565 6383 c-29 -6 -106 -35 -135 -50 -14 -7 -33 -13 -42 -13 -9 0
-51 -16 -93 -35 -71 -32 -77 -37 -100 -87 -14 -29 -25 -66 -25 -81 0 -30 36
-120 100 -247 35 -69 48 -94 114 -212 13 -24 46 -80 75 -126 28 -46 51 -87 51
-92 0 -5 4 -10 9 -12 4 -1 26 -30 47 -63 21 -33 42 -64 46 -70 5 -5 43 -57 84
-115 42 -58 82 -109 90 -113 8 -4 14 -12 14 -18 0 -15 171 -210 305 -348 115
-119 236 -231 339 -316 27 -22 60 -50 75 -63 48 -41 56 -47 111 -88 257 -189
362 -258 525 -345 77 -42 134 -43 196 -7 46 27 57 45 142 228 78 165 80 178
43 256 -18 38 -35 57 -67 76 -69 39 -233 140 -239 147 -3 3 -36 27 -75 52
-244 160 -640 528 -833 774 -56 72 -108 137 -115 145 -8 8 -38 51 -67 95 -30
44 -62 89 -72 99 -10 11 -18 23 -18 27 0 3 -16 33 -36 65 -98 160 -93 151
-182 329 -38 77 -83 152 -99 168 -42 40 -104 55 -168 40z"/>
<path d="M9299 5717 c-167 -117 -190 -142 -197 -216 -5 -51 18 -117 58 -169
26 -34 80 -119 100 -156 35 -67 122 -103 194 -82 49 15 151 84 231 158 65 59
82 112 59 187 -11 38 -34 67 -131 162 -65 65 -132 124 -150 133 -53 26 -111
21 -164 -17z"/>
<path d="M5635 5538 c-93 -96 -203 -236 -215 -272 -19 -58 -5 -129 33 -166 39
-38 243 -166 280 -175 15 -4 43 -4 62 -1 63 12 101 58 171 204 82 171 92 204
74 267 -11 40 -22 54 -73 91 -32 24 -63 44 -67 44 -4 0 -24 14 -45 30 -33 26
-46 30 -103 30 l-66 0 -51 -52z"/>
<path d="M8635 5321 c-16 -4 -45 -15 -63 -25 -30 -15 -93 -39 -212 -79 -97
-33 -282 -78 -420 -103 -127 -24 -178 -28 -415 -31 -175 -3 -302 -1 -360 7
-188 24 -208 24 -253 1 -50 -26 -89 -87 -102 -162 -5 -30 -20 -90 -34 -133
-34 -103 -34 -164 -1 -214 37 -57 87 -80 191 -91 49 -5 139 -15 201 -21 133
-15 558 -9 713 10 58 6 152 21 210 32 58 12 125 24 150 27 49 8 200 50 295 83
33 11 80 26 105 33 25 8 93 34 153 58 195 82 212 99 212 215 -1 80 -10 101
-93 212 -10 14 -33 51 -51 82 -18 32 -45 66 -60 77 -32 23 -119 34 -166 22z"/>
<path d="M10083 4873 c-48 -37 -108 -82 -133 -101 -25 -19 -47 -38 -50 -42 -3
-4 -46 -35 -97 -68 -101 -68 -133 -114 -133 -188 0 -44 -1 -41 103 -213 88
-146 108 -167 168 -185 54 -16 95 -7 162 34 70 43 347 250 347 259 0 4 23 25
51 46 54 41 88 98 89 146 0 68 -28 112 -152 233 -127 124 -161 146 -227 146
-34 0 -54 -10 -128 -67z"/>
<path d="M3138 4742 c-18 -16 -64 -50 -103 -76 -148 -100 -173 -124 -196 -182
-23 -63 -4 -111 95 -229 19 -22 69 -83 112 -135 44 -52 155 -172 249 -267 162
-163 172 -172 217 -178 81 -12 125 1 172 52 22 25 50 55 61 67 37 38 131 151
148 176 12 17 17 46 17 94 l0 69 -120 119 c-66 65 -120 121 -120 124 0 3 -28
33 -62 67 -33 34 -101 112 -150 172 -116 143 -133 155 -220 155 -59 0 -71 -3
-100 -28z"/>
<path d="M8120 3965 c-36 -8 -123 -19 -194 -25 -141 -12 -185 -27 -230 -80
-33 -39 -33 -41 -46 -240 -11 -173 -7 -204 31 -258 24 -33 87 -62 134 -62 100
-1 491 53 530 73 30 15 75 59 91 89 21 40 17 108 -10 190 -13 40 -31 102 -40
137 -21 81 -48 126 -96 156 -49 31 -91 36 -170 20z"/>
<path d="M12145 3686 c-5 -2 -44 -14 -85 -27 -57 -17 -88 -35 -133 -73 -91
-78 -134 -147 -161 -257 l-23 -94 -94 -78 c-52 -43 -114 -97 -139 -119 -80
-74 -399 -308 -544 -400 -60 -38 -106 -107 -106 -159 0 -37 15 -89 28 -99 4
-3 25 -39 47 -80 21 -41 48 -89 60 -106 11 -18 27 -45 37 -62 9 -17 35 -43 59
-59 34 -22 54 -28 98 -28 51 0 64 6 141 55 47 30 96 63 110 73 14 10 59 40
100 67 216 144 447 321 573 440 68 64 91 80 115 80 17 0 67 11 111 25 138 44
261 165 302 297 89 288 -116 586 -416 604 -38 2 -74 2 -80 0z"/>
<path d="M9800 3291 c-25 -9 -63 -27 -85 -38 -61 -32 -172 -83 -181 -83 -4 0
-30 -11 -58 -24 -51 -24 -101 -43 -256 -98 -114 -40 -133 -51 -169 -97 -46
-58 -48 -92 -13 -212 16 -57 36 -128 42 -158 24 -103 85 -170 164 -178 37 -4
183 35 251 67 30 14 173 70 234 91 30 10 59 23 66 29 6 5 30 16 51 24 22 7 93
40 159 72 132 66 169 103 180 178 6 34 1 55 -25 114 -18 40 -36 72 -41 72 -4
0 -11 9 -14 21 -13 42 -85 155 -117 185 -34 32 -85 54 -122 54 -12 -1 -41 -9
-66 -19z"/>
<path d="M3480 2908 c-54 -15 -83 -41 -176 -158 -47 -60 -92 -111 -100 -114
-7 -3 -20 -30 -29 -61 -15 -50 -15 -60 -1 -109 17 -58 35 -76 171 -171 39 -27
75 -54 80 -60 10 -11 158 -112 219 -149 17 -11 64 -41 104 -68 40 -26 74 -48
77 -48 2 0 49 -27 103 -60 55 -33 104 -60 110 -60 6 0 17 -6 25 -14 22 -23
179 -96 205 -96 32 0 92 27 120 53 13 12 43 63 67 112 104 217 105 220 105
285 0 59 -2 63 -42 105 -24 24 -77 61 -118 82 -41 22 -94 51 -117 66 -24 15
-47 27 -52 27 -5 0 -16 6 -23 13 -7 7 -44 31 -83 54 -121 71 -442 292 -469
322 -10 11 -43 30 -73 41 -60 22 -55 22 -103 8z"/>
<path d="M6330 2834 c-19 -8 -45 -25 -58 -37 -28 -26 -83 -197 -119 -369 -11
-54 6 -98 56 -148 53 -53 38 -49 306 -95 162 -28 157 -27 414 -51 256 -24 292
-16 357 77 l29 42 0 192 c0 188 0 192 -25 228 -14 20 -46 48 -71 62 -39 21
-60 25 -126 25 -109 0 -411 38 -601 76 -90 17 -118 17 -162 -2z"/>
<path d="M10270 2249 c-203 -99 -357 -169 -374 -169 -3 0 -29 -11 -58 -24 -29
-14 -78 -34 -108 -44 -82 -28 -147 -52 -229 -84 -40 -15 -81 -28 -89 -28 -9 0
-57 -13 -107 -29 -112 -37 -300 -89 -340 -94 -16 -2 -77 -16 -135 -30 -125
-30 -417 -82 -550 -97 -52 -6 -153 -18 -225 -27 -187 -25 -990 -25 -1180 -1
-71 9 -175 22 -230 28 -87 10 -164 23 -489 81 -112 20 -202 -30 -227 -125 -5
-23 -21 -77 -34 -121 -13 -44 -29 -110 -36 -147 -16 -83 -2 -137 46 -185 28
-28 49 -37 156 -62 68 -16 158 -33 199 -39 41 -6 131 -19 200 -31 121 -19 330
-41 575 -61 155 -12 705 -12 860 0 399 32 698 72 950 127 66 14 140 29 165 33
201 32 741 200 1070 332 205 83 251 104 478 215 172 84 201 112 209 201 5 52
0 69 -51 157 -19 33 -46 81 -60 107 -42 76 -73 118 -112 149 -31 24 -46 29
-93 29 -49 0 -73 -8 -181 -61z"/>
</g>
</svg>
